<svg width="193" height="47" viewBox="0 0 193 47" fill="none" xmlns="http://www.w3.org/2000/svg">
<path d="M42.264 0.688C42.0933 3.20533 41.9653 5.63733 41.88 7.984C41.8373 10.3307 41.816 12.1227 41.816 13.36C41.816 14.256 41.8373 15.1093 41.88 15.92C41.9227 16.7307 41.9653 17.4133 42.008 17.968H40.536C39.5547 13.9573 38.36 10.8 36.952 8.496C35.5867 6.192 34.1147 4.57066 32.536 3.632C31 2.65066 29.464 2.16 27.928 2.16H27.864V38.768C27.864 40.5173 28.0347 41.8187 28.376 42.672C28.76 43.5253 29.464 44.08 30.488 44.336C31.512 44.592 33.0053 44.72 34.968 44.72V46C33.4747 45.9573 31.448 45.9147 28.888 45.872C26.3707 45.8293 23.7253 45.808 20.952 45.808C18.3067 45.808 15.8107 45.8293 13.464 45.872C11.1173 45.9147 9.21867 45.9573 7.768 46V44.72C9.73067 44.72 11.224 44.592 12.248 44.336C13.272 44.08 13.9547 43.5253 14.296 42.672C14.68 41.8187 14.872 40.5173 14.872 38.768V2.16H14.808C13.272 2.16 11.7147 2.65066 10.136 3.632C8.6 4.57066 7.14933 6.192 5.784 8.496C4.41867 10.7573 3.224 13.9147 2.2 17.968H0.728C0.813333 17.4133 0.856 16.7307 0.856 15.92C0.898667 15.1093 0.92 14.256 0.92 13.36C0.92 12.1227 0.877333 10.3307 0.792 7.984C0.749333 5.63733 0.642667 3.20533 0.472 0.688C2.52 0.730666 4.78133 0.773332 7.256 0.815998C9.73067 0.858664 12.2053 0.879997 14.68 0.879997C17.1547 0.879997 19.3947 0.879997 21.4 0.879997C23.4053 0.879997 25.6453 0.879997 28.12 0.879997C30.5947 0.879997 33.0693 0.858664 35.544 0.815998C38.0187 0.773332 40.2587 0.730666 42.264 0.688ZM66.854 0.688C75.814 0.688 82.4487 2.608 86.758 6.448C91.11 10.2453 93.286 15.7067 93.286 22.832C93.286 27.4827 92.2193 31.5573 90.086 35.056C87.9527 38.512 84.8593 41.2 80.806 43.12C76.7953 45.04 71.9527 46 66.278 46C65.5953 46 64.678 45.9787 63.526 45.936C62.4167 45.8933 61.2433 45.872 60.006 45.872C58.7687 45.8293 57.6593 45.808 56.678 45.808C54.5447 45.808 52.454 45.8293 50.406 45.872C48.4007 45.872 46.7793 45.9147 45.542 46V44.72C46.8647 44.6347 47.846 44.464 48.486 44.208C49.126 43.952 49.5527 43.44 49.766 42.672C49.9793 41.904 50.086 40.752 50.086 39.216V7.472C50.086 5.89333 49.9793 4.74133 49.766 4.016C49.5527 3.248 49.1047 2.736 48.422 2.48C47.782 2.18133 46.822 2.01066 45.542 1.968V0.688C46.7793 0.730666 48.4007 0.794665 50.406 0.879997C52.454 0.922663 54.502 0.922663 56.55 0.879997C58.1287 0.837331 59.8993 0.794665 61.862 0.751999C63.8673 0.709333 65.5313 0.688 66.854 0.688ZM67.814 1.84C65.8513 1.84 64.5713 2.20266 63.974 2.928C63.3767 3.65333 63.078 5.12533 63.078 7.344V39.344C63.078 41.5627 63.3767 43.0347 63.974 43.76C64.614 44.4853 65.9153 44.848 67.878 44.848C70.7793 44.848 73.1047 44.016 74.854 42.352C76.6033 40.6453 77.862 38.1707 78.63 34.928C79.4407 31.6853 79.846 27.7387 79.846 23.088C79.846 18.3093 79.4193 14.3627 78.566 11.248C77.7553 8.09066 76.454 5.744 74.662 4.208C72.9127 2.62933 70.63 1.84 67.814 1.84ZM114.057 11.888C117.385 11.888 120.265 12.464 122.697 13.616C125.172 14.7253 127.092 16.56 128.457 19.12C129.822 21.68 130.505 25.1147 130.505 29.424C130.505 33.7333 129.822 37.168 128.457 39.728C127.092 42.288 125.172 44.1227 122.697 45.232C120.265 46.3413 117.385 46.896 114.057 46.896C110.772 46.896 107.892 46.3413 105.417 45.232C102.942 44.1227 101.022 42.288 99.657 39.728C98.2917 37.168 97.609 33.7333 97.609 29.424C97.609 25.1147 98.2917 21.68 99.657 19.12C101.022 16.56 102.942 14.7253 105.417 13.616C107.892 12.464 110.772 11.888 114.057 11.888ZM114.057 13.168C112.777 13.168 111.71 14.448 110.857 17.008C110.004 19.568 109.577 23.7067 109.577 29.424C109.577 35.1413 110.004 39.28 110.857 41.84C111.71 44.3573 112.777 45.616 114.057 45.616C115.337 45.616 116.404 44.3573 117.257 41.84C118.11 39.28 118.537 35.1413 118.537 29.424C118.537 23.7067 118.11 19.568 117.257 17.008C116.404 14.448 115.337 13.168 114.057 13.168ZM150.868 11.888C152.745 11.888 154.409 12.08 155.86 12.464C157.311 12.848 158.463 13.296 159.316 13.808C160.468 14.4907 161.385 15.408 162.068 16.56C162.793 17.6693 163.156 18.9707 163.156 20.464C163.156 22.2133 162.58 23.6853 161.428 24.88C160.276 26.0747 158.804 26.672 157.012 26.672C155.135 26.672 153.684 26.1387 152.66 25.072C151.636 24.0053 151.124 22.6187 151.124 20.912C151.124 19.2907 151.636 17.9253 152.66 16.816C153.727 15.664 154.964 14.896 156.372 14.512C156.073 14.2987 155.711 14.128 155.284 14C154.9 13.8293 154.409 13.744 153.812 13.744C152.276 13.744 151.017 14.2133 150.036 15.152C149.097 16.048 148.351 17.2427 147.796 18.736C147.284 20.2293 146.921 21.8293 146.708 23.536C146.495 25.2427 146.388 26.9067 146.388 28.528C146.388 31.5147 146.793 33.84 147.604 35.504C148.415 37.168 149.439 38.32 150.676 38.96C151.913 39.6 153.151 39.92 154.388 39.92C154.985 39.92 155.689 39.8347 156.5 39.664C157.353 39.4933 158.271 39.1093 159.252 38.512C160.233 37.872 161.193 36.912 162.132 35.632L163.22 36.016C162.708 37.7227 161.876 39.4293 160.724 41.136C159.615 42.8 158.164 44.1867 156.372 45.296C154.58 46.3627 152.404 46.896 149.844 46.896C146.985 46.896 144.383 46.3413 142.036 45.232C139.732 44.1227 137.876 42.288 136.468 39.728C135.103 37.168 134.42 33.7333 134.42 29.424C134.42 25.328 135.145 22 136.596 19.44C138.047 16.8373 140.009 14.9387 142.484 13.744C145.001 12.5067 147.796 11.888 150.868 11.888ZM179.472 11.888C181.349 11.888 182.992 12.1013 184.4 12.528C185.85 12.912 186.896 13.2747 187.536 13.616C189.029 14.512 189.946 13.9573 190.288 11.952H191.568C191.482 13.1893 191.418 14.704 191.376 16.496C191.333 18.2453 191.312 20.5707 191.312 23.472H190.032C189.861 21.8933 189.477 20.336 188.88 18.8C188.325 17.264 187.493 15.984 186.384 14.96C185.317 13.936 183.909 13.424 182.16 13.424C181.093 13.424 180.197 13.744 179.472 14.384C178.746 15.024 178.384 15.8987 178.384 17.008C178.384 18.288 178.768 19.44 179.536 20.464C180.304 21.4453 181.285 22.4053 182.48 23.344C183.674 24.24 184.869 25.2 186.064 26.224C187.386 27.2907 188.56 28.336 189.584 29.36C190.608 30.384 191.418 31.5147 192.016 32.752C192.656 33.9467 192.976 35.376 192.976 37.04C192.976 38.96 192.378 40.6667 191.184 42.16C190.032 43.6533 188.474 44.8267 186.512 45.68C184.592 46.4907 182.437 46.896 180.048 46.896C178.554 46.896 177.253 46.7253 176.144 46.384C175.034 46.0853 174.138 45.7227 173.456 45.296C172.773 44.9547 172.176 44.6987 171.664 44.528C171.194 44.3147 170.725 44.208 170.256 44.208C169.829 44.208 169.466 44.4427 169.168 44.912C168.869 45.3387 168.634 45.8507 168.464 46.448H167.184C167.269 45.0827 167.333 43.4187 167.376 41.456C167.418 39.4933 167.44 36.8907 167.44 33.648H168.72C168.976 35.9093 169.466 37.9147 170.192 39.664C170.96 41.4133 171.92 42.8 173.072 43.824C174.266 44.8053 175.632 45.296 177.168 45.296C177.85 45.296 178.469 45.168 179.024 44.912C179.578 44.656 180.026 44.272 180.368 43.76C180.709 43.248 180.88 42.5867 180.88 41.776C180.88 39.8987 180.304 38.32 179.152 37.04C178.042 35.76 176.634 34.352 174.928 32.816C173.648 31.6213 172.432 30.4693 171.28 29.36C170.17 28.208 169.253 26.9707 168.528 25.648C167.802 24.2827 167.44 22.768 167.44 21.104C167.44 19.184 167.994 17.5413 169.104 16.176C170.256 14.8107 171.749 13.7653 173.584 13.04C175.418 12.272 177.381 11.888 179.472 11.888Z" fill="#A70FDA"/>
</svg>
